# xmcd
# 
# Track frame offsets:
#     150
#     18802
#     33312
#     49292
#     68785
#     85822
#     99275
#     111640
#     121527
#     134395
#     145490
#     160225
#     173575
#     182757
#     201777
#     220817
#     237510
#     255920
#     269677
#     281655
#     293170
#     304557
#     324090
# 
# Disc length: 4505
# 
# Revision: 2
# Processed by: cddbd v1.5.2PL0 Copyright (c) Steve Scherf et al.
# Submitted via: fre:ac v1.0.17
# 
DISCID=47119717
DTITLE=Various Artist - Ljuva Country Legender CD2
DYEAR=2006
DGENRE=Country
TTITLE0=Kenny Rogers and Dolly Parton - Islands In The Stream
TTITLE1=The Bellamy Brothers -  If I Said You Had A Beautiful Body (Would You Hold It Against Me)
TTITLE2=Billy Jo Spears - Blanket On The Ground
TTITLE3=Elvis Presley -  Funny How Time Slips Away
TTITLE4=The Highwaymen -  Deportee (Plane Wreck At Los Gatos)
TTITLE5=Loretta Lynn -  Coal Miner's Daughter
TTITLE6=Charlie Rich - The Most Beautiful Girl
TTITLE7=George Hamilton IV - Abilene
TTITLE8=Lynn Anderson - Rose Garden
TTITLE9=Alan Jackson -  Chattahoochee
TTITLE10=George Jones - He Stopped Loving Her Today
TTITLE11=Tammy Wynette -  D-I-V-O-R-C-E
TTITLE12=Charley Pride -  Kiss An Angel Good Morning
TTITLE13=Tom T. Hall -  Old Dogs, Children And Watermelon Wine
TTITLE14=Bobbie Gentry - Ode To Billie Joe
TTITLE15=Tony Joe White -  Polk Salad Annie
TTITLE16=Vince Gill -  Pocket Full Of Gold
TTITLE17=Patty Loveless -  Here I Am
TTITLE18=Bob Dyland - I'll Be Your Baby Tonight
TTITLE19=Don Gibson - Sea Of Heartbreak
TTITLE20=Eva Cassidy - Tennessee Waltz
TTITLE21=Willie Nelson -  Georga On My Mind
TTITLE22=Johnny Cash (Live från Österåker) -  Me And Bobby McGee
EXTD=
EXTT0=
EXTT1=
EXTT2=
EXTT3=
EXTT4=
EXTT5=
EXTT6=
EXTT7=
EXTT8=
EXTT9=
EXTT10=
EXTT11=
EXTT12=
EXTT13=
EXTT14=
EXTT15=
EXTT16=
EXTT17=
EXTT18=
EXTT19=
EXTT20=
EXTT21=
EXTT22=
PLAYORDER=
